<svg xmlns="http://www.w3.org/2000/svg" data-name="Layer 1" viewBox="0 0 128 128" id="welcomen"><path d="M79.51 19.615c-3.342 0-4.988 2.427-4.988 7.4 0 4.943 1.646 7.37 4.988 7.37 3.342 0 4.989-2.427 4.989-7.37 0-4.973-1.647-7.4-4.989-7.4Z"></path><path d="M120 8h-3V6a6 6 0 0 0-12 0v2H23V6a6 6 0 0 0-12 0v2H8a8.009 8.009 0 0 0-8 8v22a8.009 8.009 0 0 0 8 8h3v80a2 2 0 0 0 2 2h8a2 2 0 0 0 2-2V46h82v80a2 2 0 0 0 2 2h8a2 2 0 0 0 2-2V46h3a8.009 8.009 0 0 0 8-8V16a8.009 8.009 0 0 0-8-8ZM15 6a2 2 0 0 1 4 0v2h-4Zm4 118h-4V46h4Zm9.182-105.044-4.33 17.166a1.5 1.5 0 0 1-1.394 1.198 1.534 1.534 0 0 1-1.418-1.287l-2.912-12.284-2.91 12.284a1.534 1.534 0 0 1-1.419 1.287 1.5 1.5 0 0 1-1.393-1.198l-4.33-17.166A1.826 1.826 0 0 1 8 18.417a1.621 1.621 0 0 1 1.469-1.737 1.502 1.502 0 0 1 1.393 1.198l2.962 12.581 2.887-12.522a1.428 1.428 0 0 1 2.835 0l2.887 12.522 2.963-12.581a1.502 1.502 0 0 1 1.393-1.198 1.621 1.621 0 0 1 1.468 1.737 1.826 1.826 0 0 1-.075.539ZM39.907 37.08h-8.18a1.621 1.621 0 0 1-1.469-1.738V18.657a1.621 1.621 0 0 1 1.47-1.738h7.9a1.442 1.442 0 0 1 1.316 1.558 1.442 1.442 0 0 1-1.316 1.557h-6.431v5.363h4.785a1.55 1.55 0 0 1 0 3.056h-4.785v5.512h6.71a1.58 1.58 0 0 1 0 3.116Zm12.535 0h-7.496a1.53 1.53 0 0 1-1.444-1.678V18.417a1.49 1.49 0 1 1 2.938 0v15.428h6.002a1.49 1.49 0 0 1 1.417 1.619 1.473 1.473 0 0 1-1.417 1.617Zm17.066-2.817a7.443 7.443 0 0 1-6.305 3.236c-5.04 0-7.926-3.145-7.926-10.486 0-7.1 2.887-10.514 7.926-10.514a6.687 6.687 0 0 1 6.103 3.236 1.91 1.91 0 0 1 .279.988 1.492 1.492 0 0 1-1.368 1.587 1.329 1.329 0 0 1-1.038-.599 4.583 4.583 0 0 0-3.976-2.097c-3.368 0-4.887 2.457-4.887 7.4 0 5.243 1.519 7.37 4.887 7.37a4.602 4.602 0 0 0 4.103-1.977 1.44 1.44 0 0 1 1.088-.66 1.503 1.503 0 0 1 1.368 1.618 1.649 1.649 0 0 1-.254.898ZM79.51 37.5c-5.115 0-8.027-3.475-8.027-10.486 0-7.1 2.912-10.514 8.027-10.514 5.115 0 8.027 3.414 8.027 10.514 0 7.011-2.912 10.486-8.027 10.486Zm26.487-1.888a1.464 1.464 0 1 1-2.886 0V24.708l-3.976 8.358a1.337 1.337 0 0 1-2.482 0l-3.976-8.358v10.904a1.463 1.463 0 1 1-2.885 0V18.388a1.61 1.61 0 0 1 1.442-1.708 1.43 1.43 0 0 1 1.291.958l5.37 11.384 5.368-11.384a1.43 1.43 0 0 1 1.291-.958 1.61 1.61 0 0 1 1.444 1.708ZM109 6a2 2 0 0 1 4 0v2h-4Zm4 118h-4V46h4Zm5.683-86.92h-8.18a1.621 1.621 0 0 1-1.468-1.737V18.657a1.621 1.621 0 0 1 1.469-1.738h7.9a1.442 1.442 0 0 1 1.317 1.558 1.442 1.442 0 0 1-1.316 1.557h-6.432v5.363h4.786a1.55 1.55 0 0 1 0 3.056h-4.786v5.512h6.71a1.58 1.58 0 0 1 0 3.116Z"></path><path d="M82.683 94.352a3.98 3.98 0 0 0-1.603-1.08l2.822-12.488a4 4 0 0 0-.445-2.893L72.958 59.85l-.051-.087A5.982 5.982 0 0 0 64 58.414a5.982 5.982 0 0 0-8.907 1.35l-.051.087-10.5 18.04a4 4 0 0 0-.444 2.893l2.822 12.488a3.98 3.98 0 0 0-1.603 1.08l-6.315 7.152a4 4 0 0 0 .3 5.601l9.684 8.848A4 4 0 0 0 51.684 117q.107 0 .214-.006a4 4 0 0 0 2.785-1.346l6.315-7.152a3.984 3.984 0 0 0 .805-3.839l2.197-2.19 2.197 2.19a3.984 3.984 0 0 0 .805 3.839l6.315 7.152a4 4 0 0 0 2.785 1.346q.107.006.214.006a4 4 0 0 0 2.698-1.047l9.684-8.848a4 4 0 0 0 .3-5.6ZM62 75.35A5.983 5.983 0 0 0 54 81v6a2 2 0 0 0 4 0v-6a2 2 0 0 1 4 0v17.814l-2.76 2.75-7.997-7.307L48 79.903l10.499-18.04A1.912 1.912 0 0 1 60.134 61 1.773 1.773 0 0 1 62 62.663Zm14.757 18.907-7.998 7.306L66 98.813V81a2 2 0 0 1 4 0v6a2 2 0 0 0 4 0v-6a5.983 5.983 0 0 0-8-5.65V62.663A1.773 1.773 0 0 1 67.866 61a1.912 1.912 0 0 1 1.635.863L80 79.903Z"></path></svg>